HIERARCHY
ROOT joint_Root
{
	OFFSET 0.0 0.0 0.0
	CHANNELS 6 Xposition Yposition Zposition Zrotation Xrotation Yrotation 
	JOINT Hips
	{
		OFFSET -17.1583 93.1646 452.98
		CHANNELS 6 Xposition Yposition Zposition Zrotation Xrotation Yrotation 
		JOINT Spine
		{
			OFFSET 15.7357 0.0 0.0
			CHANNELS 6 Xposition Yposition Zposition Zrotation Xrotation Yrotation 
			JOINT Chest
			{
				OFFSET 8.98455 -0.406207 0.0
				CHANNELS 6 Xposition Yposition Zposition Zrotation Xrotation Yrotation 
				JOINT Neck
				{
					OFFSET 16.3773 0.0 0.0
					CHANNELS 6 Xposition Yposition Zposition Zrotation Xrotation Yrotation 
					JOINT Head
					{
						OFFSET 6.45672 0.0 0.0
						CHANNELS 6 Xposition Yposition Zposition Zrotation Xrotation Yrotation 
						End Site
						{
							OFFSET 0.0 0.0 0.0
						}
					}
				}
				JOINT Shoulder_L
				{
					OFFSET 12.9942 -0.242716 4.98039
					CHANNELS 6 Xposition Yposition Zposition Zrotation Xrotation Yrotation 
					JOINT UpperArm_L
					{
						OFFSET 5.34809 0.0 0.0
						CHANNELS 6 Xposition Yposition Zposition Zrotation Xrotation Yrotation 
						JOINT LowerArm_L
						{
							OFFSET 24.3286 1.87007e-05 0.0
							CHANNELS 6 Xposition Yposition Zposition Zrotation Xrotation Yrotation 
							JOINT Hand_L
							{
								OFFSET 22.2916 0.0 0.0
								CHANNELS 6 Xposition Yposition Zposition Zrotation Xrotation Yrotation 
								End Site
								{
									OFFSET 0.0 0.0 0.0
								}
							}
						}
					}
				}
				JOINT Shoulder_R
				{
					OFFSET 12.9945 -0.242716 -4.98039
					CHANNELS 6 Xposition Yposition Zposition Zrotation Xrotation Yrotation 
					JOINT UpperArm_R
					{
						OFFSET -5.34813 0.0 0.0
						CHANNELS 6 Xposition Yposition Zposition Zrotation Xrotation Yrotation 
						JOINT LowerArm_R
						{
							OFFSET -24.3289 0.000322201 0.0
							CHANNELS 6 Xposition Yposition Zposition Zrotation Xrotation Yrotation 
							JOINT Hand_R
							{
								OFFSET -22.2915 -0.000108084 0.0
								CHANNELS 6 Xposition Yposition Zposition Zrotation Xrotation Yrotation 
								End Site
								{
									OFFSET 0.0 0.0 0.0
								}
							}
						}
					}
				}
			}
		}
		JOINT UpperLeg_L
		{
			OFFSET -2.19248 -6.46944 0.0
			CHANNELS 6 Xposition Yposition Zposition Zrotation Xrotation Yrotation 
			JOINT LowerLeg_L
			{
				OFFSET 39.0811 0.0 -1.23785e-05
				CHANNELS 6 Xposition Yposition Zposition Zrotation Xrotation Yrotation 
				JOINT Foot_L
				{
					OFFSET 40.9854 0.0 -1.26872e-05
					CHANNELS 6 Xposition Yposition Zposition Zrotation Xrotation Yrotation 
					JOINT Toes_L
					{
						OFFSET 11.7543 0.0 0.0
						CHANNELS 6 Xposition Yposition Zposition Zrotation Xrotation Yrotation 
						End Site
						{
							OFFSET 0.0 0.0 0.0
						}
					}
				}
			}
		}
		JOINT UpperLeg_R
		{
			OFFSET -2.19251 6.46944 0.0
			CHANNELS 6 Xposition Yposition Zposition Zrotation Xrotation Yrotation 
			JOINT LowerLeg_R
			{
				OFFSET -39.0811 -0.00228153 -0.0401928
				CHANNELS 6 Xposition Yposition Zposition Zrotation Xrotation Yrotation 
				JOINT Foot_R
				{
					OFFSET -40.9854 0.0 0.0
					CHANNELS 6 Xposition Yposition Zposition Zrotation Xrotation Yrotation 
					JOINT Toes_R
					{
						OFFSET -11.7543 0.0 0.0
						CHANNELS 6 Xposition Yposition Zposition Zrotation Xrotation Yrotation 
						End Site
						{
							OFFSET 0.0 0.0 0.0
						}
					}
				}
			}
		}
	}
}
MOTION
Frames:	7
Frame Time:	0.0333333
0.000000 0.000000 0.000000 0.000000 0.000000 -0.000000 -2.382420 93.038300 -0.473183 86.680700 0.471263 3.689760 15.735700 0.000005 -0.000001 90.498800 87.261300 -95.107000 8.984550 -0.406207 -0.000000 -2.254030 0.450031 -9.206640 16.377300 -0.000001 -0.000001 4.158200 2.019240 -8.162730 6.456720 -0.000001 -0.000000 -10.035700 6.954230 -14.432500 12.994200 -0.242716 4.980390 -93.598000 9.661520 -69.460700 5.348090 -0.000007 -0.000001 -58.545300 -0.240098 -3.200880 24.328600 0.000019 0.000005 12.939700 29.322600 -25.134000 22.291600 -0.000001 0.000005 3.328390 4.924170 8.892120 12.994500 -0.242716 -4.980390 92.954400 -5.561250 -61.962000 -5.348130 -0.000001 -0.000004 -54.174000 -61.231200 -92.829100 -24.328900 0.000322 -0.000009 -0.001073 -19.381200 -0.000108 -22.291500 -0.000108 -0.000004 34.907400 5.393820 -2.737750 -2.192480 -6.469440 -0.000000 -169.769000 -9.754190 0.997710 39.081100 -0.000007 -0.000012 -0.025469 0.084990 16.681500 40.985400 -0.000006 -0.000013 -1.082290 18.919700 -68.802000 11.754300 -0.000000 0.000003 -0.001841 0.194339 -8.692460 -2.192510 6.469440 -0.000001 178.371000 6.842960 -176.740000 -39.081100 -0.002282 -0.040193 -0.002123 0.025478 12.091600 -40.985400 0.000008 0.000006 -6.157120 12.020000 -66.187900 -11.754300 -0.000006 -0.000006 -0.008185 0.257201 -6.127460
0.000000 0.000000 0.000000 0.000000 0.000000 -0.000000 -2.333110 93.015200 -0.432145 86.689600 0.386280 3.976830 15.735700 0.000005 -0.000001 90.480200 87.251500 -95.052500 8.984550 -0.406207 -0.000000 -2.235020 0.444540 -9.134980 16.377300 -0.000001 -0.000001 4.329080 1.752700 -8.065610 6.456720 -0.000001 -0.000000 -9.970030 6.524190 -14.392700 12.994200 -0.242716 4.980390 -93.626200 9.735840 -69.456000 5.348090 -0.000007 -0.000001 -58.213900 -0.172296 -3.329100 24.328600 0.000019 0.000005 12.859100 29.159700 -25.103500 22.291600 -0.000001 0.000005 3.419130 4.929210 8.789990 12.994500 -0.242716 -4.980390 92.921500 -5.486110 -61.906200 -5.348130 -0.000001 -0.000004 -53.770500 -60.966100 -92.747500 -24.328900 0.000322 -0.000009 -0.001073 -19.286400 -0.000107 -22.291500 -0.000108 -0.000004 34.710900 5.394190 -2.749860 -2.192480 -6.469440 -0.000000 -169.768000 -9.652720 1.246600 39.081100 -0.000007 -0.000012 -0.025191 0.083120 16.859900 40.985400 -0.000006 -0.000013 -1.025460 18.813600 -68.918900 11.754300 -0.000000 0.000003 -0.001812 0.193964 -8.707720 -2.192510 6.469440 -0.000001 178.306000 6.665740 -176.531000 -39.081100 -0.002282 -0.040193 -0.002238 0.025534 12.311300 -40.985400 0.000008 0.000006 -6.174370 11.974200 -66.370300 -11.754300 -0.000006 -0.000006 -0.008706 0.261367 -5.957260
0.000000 0.000000 0.000000 0.000000 0.000000 -0.000000 -2.276720 92.996800 -0.415410 86.696200 0.390594 4.074030 15.735700 0.000005 -0.000001 90.252000 87.304300 -94.786400 8.984550 -0.406207 -0.000000 -2.341730 0.423105 -9.059420 16.377300 -0.000001 -0.000001 4.520770 1.472450 -8.018540 6.456720 -0.000001 -0.000000 -9.925790 6.081610 -14.362300 12.994200 -0.242716 4.980390 -93.648000 9.783220 -69.433400 5.348090 -0.000007 -0.000001 -58.051900 -0.033252 -3.392870 24.328600 0.000019 0.000005 12.790200 29.033200 -25.068500 22.291600 -0.000001 0.000005 3.282620 4.933260 8.707490 12.994500 -0.242716 -4.980390 92.894400 -5.419340 -61.838000 -5.348130 -0.000001 -0.000004 -53.710000 -60.780700 -92.914100 -24.328900 0.000322 -0.000009 -0.001073 -19.230700 -0.000107 -22.291500 -0.000108 -0.000004 34.311600 5.395350 -2.787040 -2.192480 -6.469440 -0.000000 -169.805000 -9.590300 1.260470 39.081100 -0.000007 -0.000012 -0.024609 0.080274 17.043100 40.985400 -0.000006 -0.000013 -0.959278 18.755800 -68.986400 11.754300 -0.000000 0.000003 -0.001945 0.195654 -8.639010 -2.192510 6.469440 -0.000001 178.249000 6.679200 -176.502000 -39.081100 -0.002282 -0.040193 -0.001947 0.023885 12.469300 -40.985400 0.000008 0.000006 -6.170310 12.004300 -66.418500 -11.754300 -0.000006 -0.000006 -0.008042 0.256040 -6.174900
0.000000 0.000000 0.000000 0.000000 0.000000 -0.000000 -2.230120 92.988400 -0.384970 86.735100 0.434671 4.230520 15.735700 0.000005 -0.000001 89.919100 87.334000 -94.410700 8.984550 -0.406207 -0.000000 -2.402860 0.390516 -8.974720 16.377300 -0.000001 -0.000001 4.680240 1.136720 -7.952530 6.456720 -0.000001 -0.000000 -9.894390 5.695350 -14.511500 12.994200 -0.242716 4.980390 -93.682300 9.876130 -69.433200 5.348090 -0.000007 -0.000001 -58.007300 0.053304 -3.329310 24.328600 0.000019 0.000005 12.718700 28.873700 -25.051800 22.291600 -0.000001 0.000005 3.043150 4.937560 8.620040 12.994500 -0.242716 -4.980390 92.873900 -5.362100 -61.755100 -5.348130 -0.000001 -0.000004 -54.005000 -60.616900 -93.408400 -24.328900 0.000322 -0.000009 -0.001042 -19.212400 -0.000107 -22.291500 -0.000108 -0.000004 34.209000 5.394150 -2.748580 -2.192480 -6.469440 -0.000000 -169.851000 -9.549970 1.409980 39.081100 -0.000007 -0.000012 -0.023924 0.077827 17.087100 40.985400 -0.000006 -0.000013 -0.901986 18.791900 -69.024200 11.754300 -0.000000 0.000003 -0.001785 0.193616 -8.721860 -2.192510 6.469440 -0.000001 178.162000 6.615340 -176.347000 -39.081100 -0.002282 -0.040193 -0.002289 0.025279 12.542500 -40.985400 0.000008 0.000006 -6.245010 11.923900 -66.507800 -11.754300 -0.000006 -0.000006 -0.008395 0.258894 -6.058320
0.000000 0.000000 0.000000 0.000000 0.000000 -0.000000 -2.185490 92.972500 -0.378622 86.728400 0.454443 4.296770 15.735700 0.000005 -0.000001 90.172400 87.368900 -94.595200 8.984550 -0.406207 -0.000000 -2.472620 0.410467 -8.836410 16.377300 -0.000001 -0.000001 4.814910 0.849942 -7.881090 6.456720 -0.000001 -0.000000 -10.012000 5.314790 -14.800500 12.994200 -0.242716 4.980390 -93.733700 10.029700 -69.459000 5.348090 -0.000007 -0.000001 -58.073000 0.060568 -3.203680 24.328600 0.000019 0.000005 12.708800 28.774900 -25.102900 22.291600 -0.000001 0.000005 3.005920 4.939980 8.570630 12.994500 -0.242716 -4.980390 92.876300 -5.336410 -61.620800 -5.348130 -0.000001 -0.000004 -54.516400 -60.527400 -93.991800 -24.328900 0.000322 -0.000009 -0.055694 -19.176600 -0.166392 -22.291500 -0.000108 -0.000004 34.326900 5.391030 -2.648800 -2.192480 -6.469440 -0.000000 -169.860000 -9.560100 1.383440 39.081100 -0.000007 -0.000012 -0.023321 0.074965 17.279900 40.985400 -0.000006 -0.000013 -0.828189 18.835900 -69.145800 11.754300 -0.000000 0.000003 -0.002126 0.197912 -8.547170 -2.192510 6.469440 -0.000001 178.149000 6.521320 -176.343000 -39.081100 -0.002282 -0.040193 -0.001853 0.023078 12.667800 -40.985400 0.000008 0.000006 -6.222120 11.824600 -66.571800 -11.754300 -0.000006 -0.000006 -0.008105 0.256558 -6.153730
0.000000 0.000000 0.000000 0.000000 0.000000 -0.000000 -2.136520 92.974900 -0.394847 86.771100 0.442533 4.314510 15.735700 0.000005 -0.000001 90.425900 87.387700 -94.790100 8.984550 -0.406207 -0.000000 -2.510260 0.429683 -8.718830 16.377300 -0.000001 -0.000001 4.836460 0.597028 -7.762920 6.456720 -0.000001 -0.000000 -10.275300 5.081410 -15.257900 12.994200 -0.242716 4.980390 -93.790800 10.124800 -69.348200 5.348090 -0.000007 -0.000001 -58.339000 0.251897 -3.116790 24.328600 0.000019 0.000005 12.640900 28.624700 -25.086500 22.291600 -0.000001 0.000005 3.026870 4.935500 8.662140 12.994500 -0.242716 -4.980390 92.869100 -5.309540 -61.560600 -5.348130 -0.000001 -0.000004 -55.782000 -60.544900 -95.111500 -24.328900 0.000322 -0.000009 -0.197225 -19.161400 -0.597694 -22.291500 -0.000108 -0.000004 34.203900 5.394010 -2.744580 -2.192480 -6.469440 -0.000000 -169.942000 -9.515690 1.395630 39.081100 -0.000007 -0.000012 -0.023141 0.074505 17.254400 40.985400 -0.000006 -0.000013 -0.817620 18.752100 -69.080100 11.754300 -0.000000 0.000003 -0.001841 0.194335 -8.692630 -2.192510 6.469440 -0.000001 178.060000 6.502260 -176.345000 -39.081100 -0.002282 -0.040193 -0.002083 0.024038 12.699900 -40.985400 0.000008 0.000006 -6.378050 11.855500 -66.572800 -11.754300 -0.000006 -0.000006 -0.008300 0.258134 -6.089340
0.000000 0.000000 0.000000 0.000000 0.000000 -0.000000 -2.101770 92.975900 -0.418033 86.795800 0.438675 4.344130 15.735700 0.000005 -0.000001 90.584900 87.380900 -94.879400 8.984550 -0.406207 -0.000000 -2.497230 0.437595 -8.579270 16.377300 -0.000001 -0.000001 4.962720 0.326505 -7.726830 6.456720 -0.000001 -0.000000 -10.817900 4.846230 -15.707200 12.994200 -0.242716 4.980390 -93.841000 10.219800 -69.273000 5.348090 -0.000007 -0.000001 -58.733500 0.380030 -2.944400 24.328600 0.000019 0.000005 12.588100 28.462900 -25.105600 22.291600 -0.000001 0.000005 3.057020 4.933650 8.699310 12.994500 -0.242716 -4.980390 92.870900 -5.301240 -61.507700 -5.348130 -0.000001 -0.000004 -56.939200 -60.577300 -96.067600 -24.328900 0.000322 -0.000009 -0.354077 -19.228800 -1.071840 -22.291500 -0.000108 -0.000004 34.177300 5.399100 -2.908670 -2.192480 -6.469440 -0.000000 -170.000000 -9.489080 1.407660 39.081100 -0.000007 -0.000012 -0.021522 0.069254 17.263500 40.985400 -0.000006 -0.000013 -0.788188 18.727400 -69.059900 11.754300 -0.000000 0.000003 -0.001817 0.194037 -8.704750 -2.192510 6.469440 -0.000001 178.008000 6.441070 -176.359000 -39.081100 -0.002282 -0.040193 -0.002328 0.025069 12.727700 -40.985400 0.000008 0.000006 -6.491020 11.831900 -66.498600 -11.754300 -0.000006 -0.000006 -0.007734 0.253512 -6.278140
